<svg xmlns="http://www.w3.org/2000/svg" width="1200" height="630" viewBox="0 0 1200 630" role="img" aria-label="Figureloom social preview">
  <defs>
    <linearGradient id="bg" x1="0" y1="0" x2="1" y2="1"><stop offset="0%" stop-color="#0c2e28"/><stop offset="55%" stop-color="#08231f"/><stop offset="100%" stop-color="#133c34"/></linearGradient>
    <radialGradient id="glowLeft" cx="0" cy="1" r="1.05"><stop offset="0%" stop-color="#5fa893" stop-opacity=".22"/><stop offset="100%" stop-color="#5fa893" stop-opacity="0"/></radialGradient>
    <radialGradient id="glowRight" cx="1" cy="0" r=".95"><stop offset="0%" stop-color="#7bb9a5" stop-opacity=".18"/><stop offset="100%" stop-color="#7bb9a5" stop-opacity="0"/></radialGradient>
    <linearGradient id="mint" x1="0" y1="0" x2="1" y2="0"><stop offset="0%" stop-color="#def3ed"/><stop offset="100%" stop-color="#badfd1"/></linearGradient>
    <linearGradient id="ivory" x1="0" y1="0" x2="1" y2="0"><stop offset="0%" stop-color="#f3ede3"/><stop offset="100%" stop-color="#ddebe5"/></linearGradient>
    <linearGradient id="sage" x1="0" y1="0" x2="0" y2="1"><stop offset="0%" stop-color="#dcebc9"/><stop offset="100%" stop-color="#bed4aa"/></linearGradient>
    <filter id="shadow" x="-20%" y="-20%" width="140%" height="140%"><feDropShadow dx="0" dy="12" stdDeviation="18" flood-color="#001511" flood-opacity=".32"/></filter>
    <pattern id="grid" width="96" height="96" patternUnits="userSpaceOnUse"><path d="M96 0H0V96" fill="none" stroke="#6f9489" stroke-opacity=".15" stroke-width="1.2"/></pattern>
  </defs>
  <rect width="1200" height="630" fill="url(#bg)"/><rect width="1200" height="630" fill="url(#grid)"/><rect width="1200" height="630" fill="url(#glowLeft)"/><rect width="1200" height="630" fill="url(#glowRight)"/>
  <g opacity=".2" stroke="#87aaa0" stroke-width="2.2"><line x1="730" y1="130" x2="1120" y2="130"/><line x1="730" y1="250" x2="1120" y2="250"/><line x1="730" y1="370" x2="1120" y2="370"/><line x1="790" y1="70" x2="790" y2="560"/><line x1="940" y1="70" x2="940" y2="560"/><line x1="1090" y1="70" x2="1090" y2="560"/><circle cx="790" cy="250" r="12" fill="#87aaa0" fill-opacity=".35"/><circle cx="940" cy="250" r="16" fill="#87aaa0" fill-opacity=".35"/><circle cx="1090" cy="130" r="28" fill="none"/><circle cx="1030" cy="420" r="44" fill="#87aaa0" fill-opacity=".18"/><circle cx="960" cy="540" r="28" fill="none"/><line x1="940" y1="250" x2="1030" y2="420"/><line x1="1030" y1="420" x2="960" y2="540"/><line x1="1030" y1="420" x2="1090" y2="130"/></g>
  <g transform="translate(90 110)" filter="url(#shadow)"><g opacity=".55" stroke="#9eb8b0" stroke-width="8" stroke-linecap="round"><path d="M162 86H366"/><path d="M144 220H380"/><path d="M144 344H330"/><path d="M220 52V430"/><path d="M330 126V430"/></g><path d="M60 410V106c0-44 34-78 78-78h232c24 0 42 18 42 42s-18 42-42 42H196v298c0 12-10 22-22 22H82c-12 0-22-10-22-22Z" fill="url(#mint)"/><path d="M60 170h250c26 0 48 22 48 48s-22 48-48 48H60v-96Z" fill="url(#ivory)"/><rect x="170" y="112" width="56" height="320" rx="16" fill="url(#sage)"/><g stroke="#e9f3ef" stroke-width="4"><circle cx="220" cy="86" r="18" fill="#98dcc0"/><circle cx="170" cy="220" r="18" fill="#efe7d8"/><circle cx="220" cy="220" r="18" fill="#d9f0eb"/><circle cx="330" cy="220" r="18" fill="#efe7d8"/><circle cx="220" cy="344" r="18" fill="#87cfb0"/></g></g>
  <text x="460" y="292" font-family="Inter,system-ui,-apple-system,BlinkMacSystemFont,'Segoe UI',sans-serif" font-size="104" font-weight="700" letter-spacing="-2.5" fill="#f3efe7">Figureloom</text>
  <text x="463" y="390" font-family="Inter,system-ui,-apple-system,BlinkMacSystemFont,'Segoe UI',sans-serif" font-size="46" font-weight="400" fill="#9fc1b6">Open scientific illustration workspace</text>
</svg>
