<svg xmlns="http://www.w3.org/2000/svg" width="1400" height="860" viewBox="0 0 1400 860" role="img" aria-labelledby="title desc">
<title id="title">Annotated FigureLoom desktop and tablet interface</title><desc id="desc">A labeled map showing the top bar, tabs, pages and layers, canvas, inspector, and navigation controls.</desc>
<style>
:root{color-scheme:light dark}.bg{fill:#eef3f2}.shell{fill:#fff;stroke:#9fb6b0;stroke-width:2}.bar{fill:#e3eeeb}.tab{fill:#f7faf9;stroke:#bfd0cb}.active{fill:#d8eee8;stroke:#39786d}.panel{fill:#f4f7f6;stroke:#b8cbc6}.canvas{fill:#fff;stroke:#809b94;stroke-width:3}.work{fill:#dce5e3}.label{fill:#17342e;font:700 23px system-ui}.small{fill:#536b65;font:600 18px system-ui}.num{fill:#fff;font:800 24px system-ui}.badge{fill:#2f7468}.line{stroke:#2f7468;stroke-width:4;fill:none;stroke-linecap:round}.object{fill:#cfe0ff;stroke:#4f6fd8;stroke-width:3}.object2{fill:#f9d8df;stroke:#b64b64;stroke-width:3}
@media(prefers-color-scheme:dark){.bg{fill:#161c1a}.shell{fill:#242b29;stroke:#52635e}.bar{fill:#2d3935}.tab{fill:#303936;stroke:#4d5d58}.active{fill:#27463f;stroke:#77baa9}.panel{fill:#2a322f;stroke:#4d5d58}.work{fill:#1d2422}.canvas{fill:#fafafa;stroke:#76958c}.label{fill:#eff8f5}.small{fill:#b4c5c0}.line{stroke:#78c4b5}.badge{fill:#397f72}}
</style>
<rect class="bg" width="1400" height="860" rx="34"/><rect class="shell" x="35" y="35" width="1330" height="790" rx="22"/>
<rect class="bar" x="35" y="35" width="1330" height="78" rx="22"/><circle cx="80" cy="74" r="22" fill="#39786d"/><text x="113" y="67" class="label">FigureLoom</text><text x="113" y="91" class="small">Untitled figure · Saved locally</text>
<g><rect class="tab active" x="52" y="127" width="105" height="43" rx="10"/><text x="79" y="155" class="small">Home</text><rect class="tab" x="165" y="127" width="95" height="43" rx="10"/><text x="196" y="155" class="small">Add</text><rect class="tab" x="268" y="127" width="150" height="43" rx="10"/><text x="289" y="155" class="small">Illustrations</text><rect class="tab" x="426" y="127" width="115" height="43" rx="10"/><text x="449" y="155" class="small">Arrange</text><rect class="tab" x="549" y="127" width="100" height="43" rx="10"/><text x="578" y="155" class="small">Style</text><rect class="tab" x="657" y="127" width="105" height="43" rx="10"/><text x="681" y="155" class="small">Charts</text><rect class="tab" x="770" y="127" width="100" height="43" rx="10"/><text x="797" y="155" class="small">Check</text><rect class="tab" x="878" y="127" width="100" height="43" rx="10"/><text x="905" y="155" class="small">Share</text></g>
<g><rect class="tab" x="1070" y="55" width="58" height="42" rx="21"/><text x="1091" y="84" class="label">?</text><rect class="tab" x="1138" y="55" width="73" height="42" rx="10"/><text x="1156" y="83" class="small">↶ ↷</text><rect x="1221" y="55" width="122" height="42" rx="10" fill="#2563eb"/><text x="1244" y="83" fill="#fff" font-family="system-ui" font-size="18" font-weight="800">Export</text></g>
<rect class="panel" x="52" y="190" width="220" height="566" rx="14"/><text x="74" y="226" class="label">Pages</text><rect x="74" y="246" width="176" height="105" rx="10" fill="#fff" stroke="#39786d" stroke-width="3"/><text x="74" y="390" class="label">Layers</text><g fill="#dce9e5"><rect x="74" y="412" width="176" height="45" rx="8"/><rect x="74" y="467" width="176" height="45" rx="8"/><rect x="74" y="522" width="176" height="45" rx="8"/></g>
<rect class="work" x="292" y="190" width="748" height="566" rx="14"/><rect class="canvas" x="364" y="250" width="604" height="378" rx="4"/><rect class="object" x="437" y="350" width="150" height="88" rx="18"/><rect class="object2" x="746" y="350" width="150" height="88" rx="44"/><path d="M587 394H746" stroke="#334155" stroke-width="5"/><path d="m732 382 18 12-18 12" fill="none" stroke="#334155" stroke-width="5"/><text x="472" y="403" fill="#26324a" font-family="system-ui" font-size="20" font-weight="700">Object A</text><text x="774" y="403" fill="#26324a" font-family="system-ui" font-size="20" font-weight="700">Object B</text><rect class="tab" x="609" y="690" width="115" height="44" rx="22"/><text x="633" y="718" class="small">− 100% +</text>
<rect class="panel" x="1060" y="190" width="288" height="566" rx="14"/><text x="1084" y="228" class="label">Edit</text><text x="1084" y="274" class="small">Selected object</text><rect x="1084" y="291" width="240" height="48" rx="9" fill="#dce9e5"/><text x="1084" y="380" class="small">Position and size</text><g fill="#dce9e5"><rect x="1084" y="397" width="112" height="46" rx="8"/><rect x="1212" y="397" width="112" height="46" rx="8"/><rect x="1084" y="455" width="112" height="46" rx="8"/><rect x="1212" y="455" width="112" height="46" rx="8"/></g><text x="1084" y="548" class="small">Colors and opacity</text><rect x="1084" y="565" width="240" height="54" rx="9" fill="#dce9e5"/>
<g><circle class="badge" cx="140" cy="785" r="24"/><text x="133" y="794" class="num">1</text><path class="line" d="M164 785H280V430"/><circle class="badge" cx="1110" cy="785" r="24"/><text x="1103" y="794" class="num">2</text><path class="line" d="M1086 785H1015V75H1060"/><circle class="badge" cx="455" cy="785" r="24"/><text x="448" y="794" class="num">3</text><path class="line" d="M479 785V174"/><circle class="badge" cx="330" cy="785" r="24"/><text x="323" y="794" class="num">4</text><path class="line" d="M330 761V620H272"/><circle class="badge" cx="665" cy="785" r="24"/><text x="658" y="794" class="num">5</text><path class="line" d="M665 761V640"/><circle class="badge" cx="1240" cy="785" r="24"/><text x="1233" y="794" class="num">6</text><path class="line" d="M1240 761V625"/><circle class="badge" cx="850" cy="785" r="24"/><text x="843" y="794" class="num">7</text><path class="line" d="M850 761V716H730"/></g>
</svg>