<svg xmlns="http://www.w3.org/2000/svg" width="1200" height="760" viewBox="0 0 1200 760" role="img" aria-labelledby="title desc"><title id="title">FigureLoom Help menu</title><desc id="desc">The Help menu with links to the full manual, start guide, quick task guides, visual guide, and passive tour.</desc><style>:root{color-scheme:light dark}.bg{fill:#eef3f2}.card{fill:#fff;stroke:#a9beb8;stroke-width:3}.item{fill:#f6faf8;stroke:#cbdad6;stroke-width:2}.tour{fill:#e4f3ef;stroke:#5c998d;stroke-width:2}.title{fill:#17342e;font:800 32px system-ui}.body{fill:#2d4942;font:700 22px system-ui}.small{fill:#687b76;font:500 17px system-ui}.icon{fill:#39786d}.q{fill:#fff;font:800 32px system-ui}@media(prefers-color-scheme:dark){.bg{fill:#171d1b}.card{fill:#252c2a;stroke:#50615c}.item{fill:#303835;stroke:#4b5b56}.tour{fill:#2d433d;stroke:#77b5a7}.title,.body{fill:#eef8f5}.small{fill:#b0c0bb}.icon{fill:#397f72}}</style><rect class="bg" width="1200" height="760" rx="36"/><circle class="icon" cx="263" cy="104" r="34"/><text x="252" y="116" class="q">?</text><path d="M300 104h90" stroke="#39786d" stroke-width="5" stroke-linecap="round"/><rect class="card" x="390" y="54" width="520" height="652" rx="24"/><text x="428" y="108" class="title">Need a hand?</text><text x="428" y="137" class="small">Open a guide without closing your project.</text><text x="852" y="110" class="title">×</text><g><rect class="item" x="422" y="168" width="456" height="86" rx="14"/><text x="447" y="204" class="body">Search the full manual</text><text x="447" y="232" class="small">Every tool, workflow, format, and limitation</text><rect class="item" x="422" y="267" width="456" height="86" rx="14"/><text x="447" y="303" class="body">Start here</text><text x="447" y="331" class="small">Create, save, back up, and export a project</text><rect class="item" x="422" y="366" width="456" height="86" rx="14"/><text x="447" y="402" class="body">Quick task guides</text><text x="447" y="430" class="small">Short instructions for what you are doing now</text><rect class="item" x="422" y="465" width="456" height="86" rx="14"/><text x="447" y="501" class="body">Visual interface guide</text><text x="447" y="529" class="small">Desktop, tablet, phone, and Help layouts</text><rect class="tour" x="422" y="564" width="456" height="90" rx="14"/><circle class="icon" cx="463" cy="609" r="22"/><text x="455" y="617" class="q" font-size="20">◎</text><text x="500" y="601" class="body">Take the passive tour</text><text x="500" y="629" class="small">Shows the interface without changing the project</text></g></svg>